<?xml version="1.0" encoding="UTF-8" standalone="no"?>
<!-- Created with Inkscape (http://www.inkscape.org/) -->

<svg
   xmlns:dc="http://purl.org/dc/elements/1.1/"
   xmlns:cc="http://creativecommons.org/ns#"
   xmlns:rdf="http://www.w3.org/1999/02/22-rdf-syntax-ns#"
   xmlns:svg="http://www.w3.org/2000/svg"
   xmlns="http://www.w3.org/2000/svg"
   xmlns:sodipodi="http://sodipodi.sourceforge.net/DTD/sodipodi-0.dtd"
   xmlns:inkscape="http://www.inkscape.org/namespaces/inkscape"
   width="107.24259mm"
   height="24.21047mm"
   viewBox="0 0 107.24259 24.21047"
   version="1.1"
   id="svg8"
   inkscape:version="0.92.5 (2060ec1f9f, 2020-04-08)"
   sodipodi:docname="seisbench_logo_outlined.svg">
  <defs
     id="defs2" />
  <sodipodi:namedview
     id="base"
     pagecolor="#ffffff"
     bordercolor="#666666"
     borderopacity="1.0"
     inkscape:pageopacity="0.0"
     inkscape:pageshadow="2"
     inkscape:zoom="0.9899495"
     inkscape:cx="297.89608"
     inkscape:cy="63.45364"
     inkscape:document-units="mm"
     inkscape:current-layer="layer1"
     showgrid="false"
     inkscape:window-width="2560"
     inkscape:window-height="1391"
     inkscape:window-x="0"
     inkscape:window-y="25"
     inkscape:window-maximized="1"
     fit-margin-top="0"
     fit-margin-left="0"
     fit-margin-right="0"
     fit-margin-bottom="0" />
  <metadata
     id="metadata5">
    <rdf:RDF>
      <cc:Work
         rdf:about="">
        <dc:format>image/svg+xml</dc:format>
        <dc:type
           rdf:resource="http://purl.org/dc/dcmitype/StillImage" />
        <dc:title />
      </cc:Work>
    </rdf:RDF>
  </metadata>
  <g
     inkscape:label="Layer 1"
     inkscape:groupmode="layer"
     id="layer1"
     transform="translate(-21.89882,-119.22683)">
    <g
       aria-label="SeisBench"
       style="font-style:normal;font-variant:normal;font-weight:normal;font-stretch:normal;font-size:16.88998795px;line-height:1.25;font-family:Verdana;-inkscape-font-specification:Verdana;letter-spacing:0px;word-spacing:0px;fill:#000000;fill-opacity:1;stroke:none;stroke-width:0.42224967"
       id="text828">
      <path
         d="m 56.745117,127.66694 q -0.25335,-0.28713 -0.59115,-0.5067 -0.337799,-0.23646 -0.760049,-0.40536 -0.42225,-0.1689 -0.912059,-0.27024 -0.47292,-0.10134 -1.0134,-0.10134 -1.570769,0 -2.313928,0.60804 -0.72627,0.59115 -0.72627,1.62144 0,0.70938 0.3378,1.11474 0.35469,0.40536 1.097849,0.65871 0.74316,0.25335 1.891679,0.52358 1.283639,0.27024 2.212588,0.64182 0.92895,0.37158 1.435649,1.0134 0.5067,0.62493 0.5067,1.70589 0,0.82761 -0.32091,1.43565 -0.320909,0.60804 -0.895169,1.0134 -0.57426,0.40536 -1.368089,0.60804 -0.793829,0.18579 -1.739669,0.18579 -0.928949,0 -1.790339,-0.18579 -0.844499,-0.20268 -1.604548,-0.57426 -0.76005,-0.38847 -1.418759,-0.97962 l 0.591149,-0.96273 q 0.32091,0.3378 0.76005,0.64182 0.456029,0.28713 0.996509,0.52359 0.55737,0.23646 1.182299,0.37158 0.64182,0.11823 1.317419,0.11823 1.435649,0 2.229479,-0.52359 0.810719,-0.52359 0.810719,-1.55388 0,-0.74316 -0.40536,-1.1823 -0.405359,-0.45603 -1.216079,-0.74316 -0.810719,-0.28713 -1.993018,-0.55737 -1.24986,-0.28713 -2.111249,-0.64182 -0.861389,-0.35469 -1.300529,-0.92894 -0.42225,-0.59115 -0.42225,-1.55388 0,-1.11474 0.54048,-1.87479 0.55737,-0.77694 1.520099,-1.16541 0.962729,-0.40536 2.212588,-0.40536 0.79383,0 1.469429,0.1689 0.69249,0.15201 1.266749,0.45603 0.59115,0.30402 1.09785,0.76005 z"
         style="font-style:normal;font-variant:normal;font-weight:normal;font-stretch:normal;font-family:Raleway;-inkscape-font-specification:Raleway;stroke-width:0.42224967"
         id="path817" />
      <path
         d="m 63.551756,137.58136 q -0.94584,0 -1.756559,-0.35469 -0.810719,-0.37158 -1.401869,-0.99651 -0.59115,-0.64182 -0.928949,-1.46943 -0.32091,-0.82761 -0.32091,-1.77345 0,-1.23297 0.557369,-2.26325 0.57426,-1.03029 1.570769,-1.63833 0.99651,-0.62493 2.263259,-0.62493 1.300529,0 2.263258,0.62493 0.979619,0.62493 1.536989,1.65522 0.55737,1.01339 0.55737,2.22947 0,0.13512 0,0.27024 0,0.11823 -0.01689,0.18579 h -7.532935 q 0.08445,0.94584 0.52359,1.689 0.456029,0.72627 1.165409,1.16541 0.726269,0.42225 1.570769,0.42225 0.861389,0 1.621439,-0.43914 0.776939,-0.43914 1.080959,-1.14852 l 0.996509,0.27024 q -0.27024,0.62493 -0.827609,1.13163 -0.55737,0.5067 -1.317419,0.79383 -0.74316,0.27024 -1.604549,0.27024 z m -3.242878,-4.98255 h 6.502645 q -0.06756,-0.96273 -0.523589,-1.689 -0.43914,-0.72626 -1.165409,-1.13162 -0.70938,-0.42225 -1.570769,-0.42225 -0.86139,0 -1.570769,0.42225 -0.70938,0.40536 -1.165409,1.14851 -0.43914,0.72627 -0.5067,1.67211 z"
         style="font-style:normal;font-variant:normal;font-weight:normal;font-stretch:normal;font-family:Raleway;-inkscape-font-specification:Raleway;stroke-width:0.42224967"
         id="path819" />
      <path
         d="m 69.66593,137.41246 v -8.79968 h 1.14852 v 8.79968 z m 0,-10.64069 v -1.689 h 1.14852 v 1.689 z"
         style="font-style:normal;font-variant:normal;font-weight:normal;font-stretch:normal;font-family:Raleway;-inkscape-font-specification:Raleway;stroke-width:0.42224967"
         id="path821" />
      <path
         d="m 76.23611,137.58136 q -1.080959,0 -2.009909,-0.35469 -0.928949,-0.35469 -1.604548,-1.08096 l 0.472919,-0.81072 q 0.74316,0.69249 1.486319,1.0134 0.76005,0.30402 1.604549,0.30402 1.030289,0 1.672109,-0.40536 0.641819,-0.42225 0.641819,-1.19919 0,-0.52359 -0.320909,-0.79383 -0.30402,-0.28713 -0.89517,-0.45603 -0.574259,-0.18579 -1.384979,-0.38847 -0.912059,-0.25335 -1.536989,-0.52359 -0.608039,-0.28713 -0.928949,-0.70938 -0.30402,-0.43914 -0.30402,-1.13163 0,-0.86138 0.42225,-1.41875 0.43914,-0.57426 1.182299,-0.86139 0.76005,-0.30402 1.688999,-0.30402 1.013399,0 1.790339,0.32091 0.776939,0.32091 1.266749,0.89517 l -0.55737,0.77694 q -0.47292,-0.54048 -1.131629,-0.79383 -0.64182,-0.27024 -1.435649,-0.27024 -0.54048,0 -1.030289,0.15201 -0.48981,0.13512 -0.81072,0.47292 -0.30402,0.32091 -0.30402,0.89516 0,0.47292 0.23646,0.74316 0.23646,0.25335 0.70938,0.43914 0.472919,0.1689 1.165409,0.37158 0.996509,0.27024 1.739669,0.55737 0.743159,0.27024 1.148519,0.70938 0.40536,0.43914 0.40536,1.23297 0,1.23297 -0.92895,1.92546 -0.928949,0.69249 -2.449048,0.69249 z"
         style="font-style:normal;font-variant:normal;font-weight:normal;font-stretch:normal;font-family:Raleway;-inkscape-font-specification:Raleway;stroke-width:0.42224967"
         id="path823" />
      <path
         d="m 90.677028,134.32159 q 0,0.89517 -0.456029,1.60455 -0.45603,0.69249 -1.232969,1.09785 -0.76005,0.38847 -1.672109,0.38847 h -5.658146 v -11.99189 h 5.776376 q 0.844499,0 1.452539,0.45603 0.624929,0.43914 0.945839,1.14852 0.3378,0.69249 0.3378,1.45254 0,0.89517 -0.45603,1.65522 -0.45603,0.76004 -1.266749,1.13162 1.030289,0.30402 1.621439,1.13163 0.608039,0.82761 0.608039,1.92546 z m -1.182299,-0.20268 q 0,-0.60804 -0.27024,-1.11474 -0.270239,-0.52359 -0.743159,-0.8445 -0.45603,-0.32091 -1.047179,-0.32091 h -4.594077 v 4.54341 h 4.475847 q 0.608039,0 1.097849,-0.32091 0.48981,-0.32091 0.776939,-0.82761 0.30402,-0.52359 0.30402,-1.11474 z m -6.654655,-7.66805 v 4.42517 h 4.121157 q 0.59115,0 1.047179,-0.30401 0.45603,-0.32091 0.72627,-0.82761 0.270239,-0.5067 0.270239,-1.08096 0,-0.60804 -0.253349,-1.09785 -0.25335,-0.5067 -0.69249,-0.81072 -0.43914,-0.30402 -0.996509,-0.30402 z"
         style="font-style:normal;font-variant:normal;font-weight:normal;font-stretch:normal;font-family:Raleway;-inkscape-font-specification:Raleway;stroke-width:0.42224967"
         id="path825" />
      <path
         d="m 96.470267,137.58136 q -0.945839,0 -1.756559,-0.35469 -0.810719,-0.37158 -1.401869,-0.99651 -0.591149,-0.64182 -0.928949,-1.46943 -0.32091,-0.82761 -0.32091,-1.77345 0,-1.23297 0.55737,-2.26325 0.574259,-1.03029 1.570769,-1.63833 0.996509,-0.62493 2.263258,-0.62493 1.300529,0 2.263259,0.62493 0.979619,0.62493 1.536984,1.65522 0.55737,1.01339 0.55737,2.22947 0,0.13512 0,0.27024 0,0.11823 -0.0169,0.18579 h -7.532931 q 0.08445,0.94584 0.52359,1.689 0.45603,0.72627 1.165409,1.16541 0.72627,0.42225 1.570769,0.42225 0.861389,0 1.621439,-0.43914 0.776939,-0.43914 1.080959,-1.14852 l 0.996505,0.27024 q -0.270235,0.62493 -0.827605,1.13163 -0.55737,0.5067 -1.317419,0.79383 -0.74316,0.27024 -1.604549,0.27024 z m -3.242878,-4.98255 h 6.502646 q -0.06756,-0.96273 -0.52359,-1.689 -0.43914,-0.72626 -1.165409,-1.13162 -0.70938,-0.42225 -1.570769,-0.42225 -0.861389,0 -1.570769,0.42225 -0.709379,0.40536 -1.165409,1.14851 -0.43914,0.72627 -0.5067,1.67211 z"
         style="font-style:normal;font-variant:normal;font-weight:normal;font-stretch:normal;font-family:Raleway;-inkscape-font-specification:Raleway;stroke-width:0.42224967"
         id="path827" />
      <path
         d="m 109.98226,137.41246 h -1.14852 v -4.91499 q 0,-1.55388 -0.45603,-2.26325 -0.45603,-0.72627 -1.43565,-0.72627 -0.6756,0 -1.33431,0.3378 -0.65871,0.32091 -1.16541,0.89517 -0.48981,0.55736 -0.70938,1.28363 v 5.38791 h -1.14852 v -8.79968 h 1.04718 v 1.99302 q 0.35469,-0.64182 0.92895,-1.11474 0.57426,-0.48981 1.30053,-0.76005 0.72627,-0.27024 1.50321,-0.27024 0.72627,0 1.23297,0.27024 0.5067,0.27024 0.81072,0.77694 0.30402,0.48981 0.43914,1.19919 0.13512,0.69248 0.13512,1.55387 z"
         style="font-style:normal;font-variant:normal;font-weight:normal;font-stretch:normal;font-family:Raleway;-inkscape-font-specification:Raleway;stroke-width:0.42224967"
         id="path829" />
      <path
         d="m 116.24841,137.58136 q -0.96273,0 -1.77344,-0.35469 -0.79383,-0.37158 -1.40187,-1.0134 -0.59115,-0.64182 -0.92895,-1.46943 -0.32091,-0.82761 -0.32091,-1.75656 0,-1.24986 0.55737,-2.28014 0.55737,-1.03029 1.55388,-1.63833 0.99651,-0.60804 2.29703,-0.60804 1.23297,0 2.17881,0.57426 0.94584,0.55737 1.40187,1.5201 l -1.11474,0.35468 q -0.37158,-0.67559 -1.04718,-1.04717 -0.65871,-0.38847 -1.46943,-0.38847 -0.87828,0 -1.60454,0.45603 -0.72627,0.45603 -1.16541,1.24985 -0.42225,0.79383 -0.42225,1.80723 0,0.99651 0.43914,1.80723 0.43914,0.81072 1.16541,1.30053 0.72626,0.47292 1.60454,0.47292 0.57426,0 1.09785,-0.20268 0.54048,-0.20268 0.92895,-0.54048 0.40536,-0.35469 0.54048,-0.76005 l 1.13163,0.3378 q -0.23646,0.62493 -0.79383,1.13163 -0.54048,0.48981 -1.28364,0.77694 -0.72627,0.27024 -1.57077,0.27024 z"
         style="font-style:normal;font-variant:normal;font-weight:normal;font-stretch:normal;font-family:Raleway;-inkscape-font-specification:Raleway;stroke-width:0.42224967"
         id="path831" />
      <path
         d="m 129.10169,137.41246 h -1.14852 v -4.91499 q 0,-1.48632 -0.52359,-2.22947 -0.52358,-0.76005 -1.5032,-0.76005 -0.64182,0 -1.28364,0.3378 -0.62493,0.32091 -1.11474,0.89517 -0.47292,0.55736 -0.6756,1.28363 v 5.38791 h -1.14852 v -12.32969 h 1.14852 v 5.52303 q 0.52359,-0.97962 1.45254,-1.55388 0.94584,-0.59115 2.00991,-0.59115 0.76005,0 1.28363,0.27024 0.54048,0.27024 0.86139,0.79383 0.3378,0.5067 0.48981,1.19919 0.15201,0.67559 0.15201,1.53698 z"
         style="font-style:normal;font-variant:normal;font-weight:normal;font-stretch:normal;font-family:Raleway;-inkscape-font-specification:Raleway;stroke-width:0.42224967"
         id="path833" />
    </g>
    <g
       id="g859"
       transform="matrix(2.0572108,0,0,2.0572108,-23.435264,-170.69929)"
       inkscape:export-filename="C:\Users\jwool\Documents\Liverpool\AutoPicking\seisbench\docs\_static\seisbench_logo.png"
       inkscape:export-xdpi="300"
       inkscape:export-ydpi="300">
      <circle
         cy="146.81595"
         cx="27.920969"
         id="path830"
         style="opacity:1;fill:#000000;fill-opacity:1;stroke:#000000;stroke-width:0.16196966;stroke-miterlimit:8;stroke-dasharray:none;stroke-dashoffset:0;stroke-opacity:1"
         r="5.8033099" />
      <path
         inkscape:connector-curvature="0"
         id="path832-2"
         d="m 23.305586,146.72429 h 2.59928 l 0.699806,-1.33295 0.01666,2.66592 1.516247,-3.96557 -0.01666,5.44849 1.616218,-4.86532 -0.03333,4.24883 1.566232,-2.98251 v 0.88309 h 1.266316"
         style="fill:none;stroke:#ffffff;stroke-width:0.27694678;stroke-linecap:round;stroke-linejoin:round;stroke-miterlimit:4;stroke-dasharray:none;stroke-opacity:1" />
    </g>
  </g>
</svg>
