<?xml version="1.0" encoding="UTF-8" standalone="no"?>
<!-- Created with Inkscape (http://www.inkscape.org/) -->

<svg
   xmlns:dc="http://purl.org/dc/elements/1.1/"
   xmlns:cc="http://creativecommons.org/ns#"
   xmlns:rdf="http://www.w3.org/1999/02/22-rdf-syntax-ns#"
   xmlns:svg="http://www.w3.org/2000/svg"
   xmlns="http://www.w3.org/2000/svg"
   xmlns:sodipodi="http://sodipodi.sourceforge.net/DTD/sodipodi-0.dtd"
   xmlns:inkscape="http://www.inkscape.org/namespaces/inkscape"
   width="107.24259mm"
   height="24.21047mm"
   viewBox="0 0 107.24259 24.21047"
   version="1.1"
   id="svg8"
   inkscape:version="0.92.5 (2060ec1f9f, 2020-04-08)"
   sodipodi:docname="seisbench_logo_subtitle_outlined.svg">
  <defs
     id="defs2" />
  <sodipodi:namedview
     id="base"
     pagecolor="#ffffff"
     bordercolor="#666666"
     borderopacity="1.0"
     inkscape:pageopacity="0.0"
     inkscape:pageshadow="2"
     inkscape:zoom="3.959798"
     inkscape:cx="203.879"
     inkscape:cy="-32.387571"
     inkscape:document-units="mm"
     inkscape:current-layer="text828"
     showgrid="false"
     inkscape:window-width="2560"
     inkscape:window-height="1391"
     inkscape:window-x="0"
     inkscape:window-y="25"
     inkscape:window-maximized="1"
     fit-margin-top="0"
     fit-margin-left="0"
     fit-margin-right="0"
     fit-margin-bottom="0" />
  <metadata
     id="metadata5">
    <rdf:RDF>
      <cc:Work
         rdf:about="">
        <dc:format>image/svg+xml</dc:format>
        <dc:type
           rdf:resource="http://purl.org/dc/dcmitype/StillImage" />
        <dc:title />
      </cc:Work>
    </rdf:RDF>
  </metadata>
  <g
     inkscape:label="Layer 1"
     inkscape:groupmode="layer"
     id="layer1"
     transform="translate(-21.89882,-119.22683)">
    <g
       aria-label="SeisBench"
       style="font-style:normal;font-variant:normal;font-weight:normal;font-stretch:normal;font-size:16.88998795px;line-height:1.25;font-family:Verdana;-inkscape-font-specification:Verdana;letter-spacing:0px;word-spacing:0px;fill:#000000;fill-opacity:1;stroke:none;stroke-width:0.42224967"
       id="text828">
      <path
         d="m 56.745117,127.66694 q -0.25335,-0.28713 -0.59115,-0.5067 -0.337799,-0.23646 -0.760049,-0.40536 -0.42225,-0.1689 -0.912059,-0.27024 -0.47292,-0.10134 -1.0134,-0.10134 -1.570769,0 -2.313928,0.60804 -0.72627,0.59115 -0.72627,1.62144 0,0.70938 0.3378,1.11474 0.35469,0.40536 1.097849,0.65871 0.74316,0.25335 1.891679,0.52358 1.283639,0.27024 2.212588,0.64182 0.92895,0.37158 1.435649,1.0134 0.5067,0.62493 0.5067,1.70589 0,0.82761 -0.32091,1.43565 -0.320909,0.60804 -0.895169,1.0134 -0.57426,0.40536 -1.368089,0.60804 -0.793829,0.18579 -1.739669,0.18579 -0.928949,0 -1.790339,-0.18579 -0.844499,-0.20268 -1.604548,-0.57426 -0.76005,-0.38847 -1.418759,-0.97962 l 0.591149,-0.96273 q 0.32091,0.3378 0.76005,0.64182 0.456029,0.28713 0.996509,0.52359 0.55737,0.23646 1.182299,0.37158 0.64182,0.11823 1.317419,0.11823 1.435649,0 2.229479,-0.52359 0.810719,-0.52359 0.810719,-1.55388 0,-0.74316 -0.40536,-1.1823 -0.405359,-0.45603 -1.216079,-0.74316 -0.810719,-0.28713 -1.993018,-0.55737 -1.24986,-0.28713 -2.111249,-0.64182 -0.861389,-0.35469 -1.300529,-0.92894 -0.42225,-0.59115 -0.42225,-1.55388 0,-1.11474 0.54048,-1.87479 0.55737,-0.77694 1.520099,-1.16541 0.962729,-0.40536 2.212588,-0.40536 0.79383,0 1.469429,0.1689 0.69249,0.15201 1.266749,0.45603 0.59115,0.30402 1.09785,0.76005 z"
         style="font-style:normal;font-variant:normal;font-weight:normal;font-stretch:normal;font-family:Raleway;-inkscape-font-specification:Raleway;stroke-width:0.42224967"
         id="path900" />
      <path
         d="m 63.551756,137.58136 q -0.94584,0 -1.756559,-0.35469 -0.810719,-0.37158 -1.401869,-0.99651 -0.59115,-0.64182 -0.928949,-1.46943 -0.32091,-0.82761 -0.32091,-1.77345 0,-1.23297 0.557369,-2.26325 0.57426,-1.03029 1.570769,-1.63833 0.99651,-0.62493 2.263259,-0.62493 1.300529,0 2.263258,0.62493 0.979619,0.62493 1.536989,1.65522 0.55737,1.01339 0.55737,2.22947 0,0.13512 0,0.27024 0,0.11823 -0.01689,0.18579 h -7.532935 q 0.08445,0.94584 0.52359,1.689 0.456029,0.72627 1.165409,1.16541 0.726269,0.42225 1.570769,0.42225 0.861389,0 1.621439,-0.43914 0.776939,-0.43914 1.080959,-1.14852 l 0.996509,0.27024 q -0.27024,0.62493 -0.827609,1.13163 -0.55737,0.5067 -1.317419,0.79383 -0.74316,0.27024 -1.604549,0.27024 z m -3.242878,-4.98255 h 6.502645 q -0.06756,-0.96273 -0.523589,-1.689 -0.43914,-0.72626 -1.165409,-1.13162 -0.70938,-0.42225 -1.570769,-0.42225 -0.86139,0 -1.570769,0.42225 -0.70938,0.40536 -1.165409,1.14851 -0.43914,0.72627 -0.5067,1.67211 z"
         style="font-style:normal;font-variant:normal;font-weight:normal;font-stretch:normal;font-family:Raleway;-inkscape-font-specification:Raleway;stroke-width:0.42224967"
         id="path902" />
      <path
         d="m 69.66593,137.41246 v -8.79968 h 1.14852 v 8.79968 z m 0,-10.64069 v -1.689 h 1.14852 v 1.689 z"
         style="font-style:normal;font-variant:normal;font-weight:normal;font-stretch:normal;font-family:Raleway;-inkscape-font-specification:Raleway;stroke-width:0.42224967"
         id="path904" />
      <path
         d="m 76.23611,137.58136 q -1.080959,0 -2.009909,-0.35469 -0.928949,-0.35469 -1.604548,-1.08096 l 0.472919,-0.81072 q 0.74316,0.69249 1.486319,1.0134 0.76005,0.30402 1.604549,0.30402 1.030289,0 1.672109,-0.40536 0.641819,-0.42225 0.641819,-1.19919 0,-0.52359 -0.320909,-0.79383 -0.30402,-0.28713 -0.89517,-0.45603 -0.574259,-0.18579 -1.384979,-0.38847 -0.912059,-0.25335 -1.536989,-0.52359 -0.608039,-0.28713 -0.928949,-0.70938 -0.30402,-0.43914 -0.30402,-1.13163 0,-0.86138 0.42225,-1.41875 0.43914,-0.57426 1.182299,-0.86139 0.76005,-0.30402 1.688999,-0.30402 1.013399,0 1.790339,0.32091 0.776939,0.32091 1.266749,0.89517 l -0.55737,0.77694 q -0.47292,-0.54048 -1.131629,-0.79383 -0.64182,-0.27024 -1.435649,-0.27024 -0.54048,0 -1.030289,0.15201 -0.48981,0.13512 -0.81072,0.47292 -0.30402,0.32091 -0.30402,0.89516 0,0.47292 0.23646,0.74316 0.23646,0.25335 0.70938,0.43914 0.472919,0.1689 1.165409,0.37158 0.996509,0.27024 1.739669,0.55737 0.743159,0.27024 1.148519,0.70938 0.40536,0.43914 0.40536,1.23297 0,1.23297 -0.92895,1.92546 -0.928949,0.69249 -2.449048,0.69249 z"
         style="font-style:normal;font-variant:normal;font-weight:normal;font-stretch:normal;font-family:Raleway;-inkscape-font-specification:Raleway;stroke-width:0.42224967"
         id="path906" />
      <path
         d="m 90.677028,134.32159 q 0,0.89517 -0.456029,1.60455 -0.45603,0.69249 -1.232969,1.09785 -0.76005,0.38847 -1.672109,0.38847 h -5.658146 v -11.99189 h 5.776376 q 0.844499,0 1.452539,0.45603 0.624929,0.43914 0.945839,1.14852 0.3378,0.69249 0.3378,1.45254 0,0.89517 -0.45603,1.65522 -0.45603,0.76004 -1.266749,1.13162 1.030289,0.30402 1.621439,1.13163 0.608039,0.82761 0.608039,1.92546 z m -1.182299,-0.20268 q 0,-0.60804 -0.27024,-1.11474 -0.270239,-0.52359 -0.743159,-0.8445 -0.45603,-0.32091 -1.047179,-0.32091 h -4.594077 v 4.54341 h 4.475847 q 0.608039,0 1.097849,-0.32091 0.48981,-0.32091 0.776939,-0.82761 0.30402,-0.52359 0.30402,-1.11474 z m -6.654655,-7.66805 v 4.42517 h 4.121157 q 0.59115,0 1.047179,-0.30401 0.45603,-0.32091 0.72627,-0.82761 0.270239,-0.5067 0.270239,-1.08096 0,-0.60804 -0.253349,-1.09785 -0.25335,-0.5067 -0.69249,-0.81072 -0.43914,-0.30402 -0.996509,-0.30402 z"
         style="font-style:normal;font-variant:normal;font-weight:normal;font-stretch:normal;font-family:Raleway;-inkscape-font-specification:Raleway;stroke-width:0.42224967"
         id="path908" />
      <path
         d="m 96.470267,137.58136 q -0.945839,0 -1.756559,-0.35469 -0.810719,-0.37158 -1.401869,-0.99651 -0.591149,-0.64182 -0.928949,-1.46943 -0.32091,-0.82761 -0.32091,-1.77345 0,-1.23297 0.55737,-2.26325 0.574259,-1.03029 1.570769,-1.63833 0.996509,-0.62493 2.263258,-0.62493 1.300529,0 2.263259,0.62493 0.979619,0.62493 1.536984,1.65522 0.55737,1.01339 0.55737,2.22947 0,0.13512 0,0.27024 0,0.11823 -0.0169,0.18579 h -7.532931 q 0.08445,0.94584 0.52359,1.689 0.45603,0.72627 1.165409,1.16541 0.72627,0.42225 1.570769,0.42225 0.861389,0 1.621439,-0.43914 0.776939,-0.43914 1.080959,-1.14852 l 0.996505,0.27024 q -0.270235,0.62493 -0.827605,1.13163 -0.55737,0.5067 -1.317419,0.79383 -0.74316,0.27024 -1.604549,0.27024 z m -3.242878,-4.98255 h 6.502646 q -0.06756,-0.96273 -0.52359,-1.689 -0.43914,-0.72626 -1.165409,-1.13162 -0.70938,-0.42225 -1.570769,-0.42225 -0.861389,0 -1.570769,0.42225 -0.709379,0.40536 -1.165409,1.14851 -0.43914,0.72627 -0.5067,1.67211 z"
         style="font-style:normal;font-variant:normal;font-weight:normal;font-stretch:normal;font-family:Raleway;-inkscape-font-specification:Raleway;stroke-width:0.42224967"
         id="path910" />
      <path
         d="m 109.98226,137.41246 h -1.14852 v -4.91499 q 0,-1.55388 -0.45603,-2.26325 -0.45603,-0.72627 -1.43565,-0.72627 -0.6756,0 -1.33431,0.3378 -0.65871,0.32091 -1.16541,0.89517 -0.48981,0.55736 -0.70938,1.28363 v 5.38791 h -1.14852 v -8.79968 h 1.04718 v 1.99302 q 0.35469,-0.64182 0.92895,-1.11474 0.57426,-0.48981 1.30053,-0.76005 0.72627,-0.27024 1.50321,-0.27024 0.72627,0 1.23297,0.27024 0.5067,0.27024 0.81072,0.77694 0.30402,0.48981 0.43914,1.19919 0.13512,0.69248 0.13512,1.55387 z"
         style="font-style:normal;font-variant:normal;font-weight:normal;font-stretch:normal;font-family:Raleway;-inkscape-font-specification:Raleway;stroke-width:0.42224967"
         id="path912" />
      <path
         d="m 116.24841,137.58136 q -0.96273,0 -1.77344,-0.35469 -0.79383,-0.37158 -1.40187,-1.0134 -0.59115,-0.64182 -0.92895,-1.46943 -0.32091,-0.82761 -0.32091,-1.75656 0,-1.24986 0.55737,-2.28014 0.55737,-1.03029 1.55388,-1.63833 0.99651,-0.60804 2.29703,-0.60804 1.23297,0 2.17881,0.57426 0.94584,0.55737 1.40187,1.5201 l -1.11474,0.35468 q -0.37158,-0.67559 -1.04718,-1.04717 -0.65871,-0.38847 -1.46943,-0.38847 -0.87828,0 -1.60454,0.45603 -0.72627,0.45603 -1.16541,1.24985 -0.42225,0.79383 -0.42225,1.80723 0,0.99651 0.43914,1.80723 0.43914,0.81072 1.16541,1.30053 0.72626,0.47292 1.60454,0.47292 0.57426,0 1.09785,-0.20268 0.54048,-0.20268 0.92895,-0.54048 0.40536,-0.35469 0.54048,-0.76005 l 1.13163,0.3378 q -0.23646,0.62493 -0.79383,1.13163 -0.54048,0.48981 -1.28364,0.77694 -0.72627,0.27024 -1.57077,0.27024 z"
         style="font-style:normal;font-variant:normal;font-weight:normal;font-stretch:normal;font-family:Raleway;-inkscape-font-specification:Raleway;stroke-width:0.42224967"
         id="path914" />
      <path
         d="m 129.10169,137.41246 h -1.14852 v -4.91499 q 0,-1.48632 -0.52359,-2.22947 -0.52358,-0.76005 -1.5032,-0.76005 -0.64182,0 -1.28364,0.3378 -0.62493,0.32091 -1.11474,0.89517 -0.47292,0.55736 -0.6756,1.28363 v 5.38791 h -1.14852 v -12.32969 h 1.14852 v 5.52303 q 0.52359,-0.97962 1.45254,-1.55388 0.94584,-0.59115 2.00991,-0.59115 0.76005,0 1.28363,0.27024 0.54048,0.27024 0.86139,0.79383 0.3378,0.5067 0.48981,1.19919 0.15201,0.67559 0.15201,1.53698 z"
         style="font-style:normal;font-variant:normal;font-weight:normal;font-stretch:normal;font-family:Raleway;-inkscape-font-specification:Raleway;stroke-width:0.42224967"
         id="path916" />
    </g>
    <g
       id="g859"
       transform="matrix(2.0572108,0,0,2.0572108,-23.435264,-170.69929)"
       inkscape:export-filename="C:\Users\jwool\Documents\Liverpool\AutoPicking\seisbench\docs\_static\seisbench_logo.png"
       inkscape:export-xdpi="300"
       inkscape:export-ydpi="300">
      <circle
         cy="146.81595"
         cx="27.920969"
         id="path830"
         style="opacity:1;fill:#000000;fill-opacity:1;stroke:#000000;stroke-width:0.16196966;stroke-miterlimit:8;stroke-dasharray:none;stroke-dashoffset:0;stroke-opacity:1"
         r="5.8033099" />
      <path
         inkscape:connector-curvature="0"
         id="path832-2"
         d="m 23.305586,146.72429 h 2.59928 l 0.699806,-1.33295 0.01666,2.66592 1.516247,-3.96557 -0.01666,5.44849 1.616218,-4.86532 -0.03333,4.24883 1.566232,-2.98251 v 0.88309 h 1.266316"
         style="fill:none;stroke:#ffffff;stroke-width:0.27694678;stroke-linecap:round;stroke-linejoin:round;stroke-miterlimit:4;stroke-dasharray:none;stroke-opacity:1" />
    </g>
    <g
       aria-label="A toolbox for machine learning in seismology"
       style="font-style:normal;font-weight:normal;font-size:10.58333302px;line-height:1.25;font-family:sans-serif;letter-spacing:0px;word-spacing:0px;fill:#000000;fill-opacity:1;stroke:none;stroke-width:0.26458332"
       id="text14">
      <path
         d="m 49.839728,138.93733 h 0.228953 l 1.144764,2.75519 h -0.287161 l -0.357011,-0.86148 h -1.237898 l -0.35313,0.86148 h -0.291042 z m 0.667456,1.68028 -0.55492,-1.36208 -0.56268,1.36208 z"
         style="font-style:normal;font-variant:normal;font-weight:normal;font-stretch:normal;font-size:3.88055563px;font-family:Raleway;-inkscape-font-specification:Raleway;stroke-width:0.26458332"
         id="path822" />
      <path
         d="m 53.394308,141.59551 q -0.03104,0.0116 -0.09701,0.0427 -0.06597,0.031 -0.159102,0.0543 -0.09313,0.0233 -0.201789,0.0233 -0.112536,0 -0.213431,-0.0427 -0.09701,-0.0427 -0.155222,-0.12806 -0.05821,-0.0892 -0.05821,-0.21731 v -1.44745 h -0.2794 v -0.20955 h 0.2794 v -0.68298 h 0.263877 v 0.68298 h 0.465667 v 0.20955 h -0.465667 v 1.37372 q 0.0078,0.10865 0.07761,0.16298 0.07373,0.0543 0.166864,0.0543 0.108656,0 0.197909,-0.0349 0.08925,-0.0388 0.108655,-0.0543 z"
         style="font-style:normal;font-variant:normal;font-weight:normal;font-stretch:normal;font-size:3.88055563px;font-family:Raleway;-inkscape-font-specification:Raleway;stroke-width:0.26458332"
         id="path824" />
      <path
         d="m 54.551618,141.73133 q -0.217311,0 -0.403578,-0.0815 -0.182386,-0.0854 -0.318206,-0.22895 -0.131939,-0.14746 -0.205669,-0.33373 -0.07373,-0.19014 -0.07373,-0.39969 0,-0.21731 0.07373,-0.40358 0.07373,-0.19015 0.20955,-0.33373 0.135819,-0.14746 0.318205,-0.22895 0.186267,-0.0854 0.403578,-0.0854 0.217311,0 0.399697,0.0854 0.182387,0.0815 0.318206,0.22895 0.135819,0.14358 0.20955,0.33373 0.07373,0.18627 0.07373,0.40358 0,0.20955 -0.07373,0.39969 -0.07373,0.18627 -0.20955,0.33373 -0.131939,0.14358 -0.318206,0.22895 -0.182386,0.0815 -0.403577,0.0815 z m -0.733425,-1.03999 q 0,0.22507 0.09701,0.41134 0.100894,0.18238 0.267758,0.29104 0.166864,0.10477 0.368653,0.10477 0.201789,0 0.368652,-0.10865 0.166864,-0.10866 0.267759,-0.29493 0.100894,-0.19014 0.100894,-0.41133 0,-0.22508 -0.100894,-0.41134 -0.100895,-0.18627 -0.267759,-0.29493 -0.166863,-0.10865 -0.368652,-0.10865 -0.201789,0 -0.368653,0.11254 -0.162983,0.11253 -0.263878,0.2988 -0.100894,0.18238 -0.100894,0.41134 z"
         style="font-style:normal;font-variant:normal;font-weight:normal;font-stretch:normal;font-size:3.88055563px;font-family:Raleway;-inkscape-font-specification:Raleway;stroke-width:0.26458332"
         id="path826" />
      <path
         d="m 56.860546,141.73133 q -0.217311,0 -0.403578,-0.0815 -0.182386,-0.0854 -0.318206,-0.22895 -0.131939,-0.14746 -0.205669,-0.33373 -0.07373,-0.19014 -0.07373,-0.39969 0,-0.21731 0.07373,-0.40358 0.07373,-0.19015 0.20955,-0.33373 0.135819,-0.14746 0.318205,-0.22895 0.186267,-0.0854 0.403578,-0.0854 0.217311,0 0.399697,0.0854 0.182387,0.0815 0.318206,0.22895 0.13582,0.14358 0.20955,0.33373 0.07373,0.18627 0.07373,0.40358 0,0.20955 -0.07373,0.39969 -0.07373,0.18627 -0.20955,0.33373 -0.131939,0.14358 -0.318206,0.22895 -0.182386,0.0815 -0.403577,0.0815 z m -0.733425,-1.03999 q 0,0.22507 0.09701,0.41134 0.100894,0.18238 0.267758,0.29104 0.166864,0.10477 0.368653,0.10477 0.201789,0 0.368652,-0.10865 0.166864,-0.10866 0.267759,-0.29493 0.100894,-0.19014 0.100894,-0.41133 0,-0.22508 -0.100894,-0.41134 -0.100895,-0.18627 -0.267759,-0.29493 -0.166863,-0.10865 -0.368652,-0.10865 -0.201789,0 -0.368653,0.11254 -0.162983,0.11253 -0.263878,0.2988 -0.100894,0.18238 -0.100894,0.41134 z"
         style="font-style:normal;font-variant:normal;font-weight:normal;font-stretch:normal;font-size:3.88055563px;font-family:Raleway;-inkscape-font-specification:Raleway;stroke-width:0.26458332"
         id="path828" />
      <path
         d="m 58.319632,138.85971 h 0.263878 v 2.3749 q 0,0.15135 0.05433,0.19791 0.05433,0.0466 0.131938,0.0466 0.06985,0 0.1397,-0.0155 0.06985,-0.0155 0.120298,-0.031 l 0.04657,0.21343 q -0.07373,0.031 -0.182386,0.0505 -0.104775,0.0194 -0.182386,0.0194 -0.178505,0 -0.287161,-0.10477 -0.104775,-0.10478 -0.104775,-0.28716 z"
         style="font-style:normal;font-variant:normal;font-weight:normal;font-stretch:normal;font-size:3.88055563px;font-family:Raleway;-inkscape-font-specification:Raleway;stroke-width:0.26458332"
         id="path831" />
      <path
         d="m 60.353041,141.73133 q -0.236714,0 -0.438503,-0.1203 -0.201789,-0.12418 -0.314325,-0.31045 v 0.39194 h -0.236714 v -2.83281 h 0.263878 v 1.23402 q 0.135819,-0.20567 0.325966,-0.32985 0.190148,-0.12805 0.442384,-0.12805 0.21343,0 0.380294,0.0892 0.170745,0.0893 0.291042,0.24059 0.120297,0.14746 0.182386,0.33761 0.06209,0.18627 0.06209,0.38418 0,0.21343 -0.07373,0.39969 -0.06985,0.18627 -0.201789,0.33373 -0.131938,0.14358 -0.306563,0.22895 -0.170745,0.0815 -0.376414,0.0815 z m -0.06209,-0.23284 q 0.162983,0 0.302683,-0.066 0.1397,-0.066 0.240595,-0.18238 0.100894,-0.11642 0.155222,-0.26 0.05433,-0.14746 0.05433,-0.30268 0,-0.21343 -0.09313,-0.3997 -0.08925,-0.19015 -0.252236,-0.30268 -0.159103,-0.11642 -0.376414,-0.11642 -0.155222,0 -0.291041,0.0699 -0.131939,0.0699 -0.236714,0.18627 -0.100895,0.11253 -0.166864,0.24835 v 0.62865 q 0.01552,0.10478 0.08149,0.19791 0.06597,0.0892 0.162984,0.15522 0.100894,0.066 0.20955,0.10478 0.108655,0.0388 0.20955,0.0388 z"
         style="font-style:normal;font-variant:normal;font-weight:normal;font-stretch:normal;font-size:3.88055563px;font-family:Raleway;-inkscape-font-specification:Raleway;stroke-width:0.26458332"
         id="path833" />
      <path
         d="m 62.61928,141.73133 q -0.217311,0 -0.403578,-0.0815 -0.182386,-0.0854 -0.318205,-0.22895 -0.131939,-0.14746 -0.20567,-0.33373 -0.07373,-0.19014 -0.07373,-0.39969 0,-0.21731 0.07373,-0.40358 0.07373,-0.19015 0.20955,-0.33373 0.13582,-0.14746 0.318206,-0.22895 0.186266,-0.0854 0.403577,-0.0854 0.217312,0 0.399698,0.0854 0.182386,0.0815 0.318205,0.22895 0.13582,0.14358 0.20955,0.33373 0.07373,0.18627 0.07373,0.40358 0,0.20955 -0.07373,0.39969 -0.07373,0.18627 -0.20955,0.33373 -0.131939,0.14358 -0.318205,0.22895 -0.182386,0.0815 -0.403578,0.0815 z m -0.733425,-1.03999 q 0,0.22507 0.09701,0.41134 0.100894,0.18238 0.267758,0.29104 0.166864,0.10477 0.368653,0.10477 0.201789,0 0.368653,-0.10865 0.166864,-0.10866 0.267758,-0.29493 0.100895,-0.19014 0.100895,-0.41133 0,-0.22508 -0.100895,-0.41134 -0.100894,-0.18627 -0.267758,-0.29493 -0.166864,-0.10865 -0.368653,-0.10865 -0.201789,0 -0.368653,0.11254 -0.162983,0.11253 -0.263878,0.2988 -0.100894,0.18238 -0.100894,0.41134 z"
         style="font-style:normal;font-variant:normal;font-weight:normal;font-stretch:normal;font-size:3.88055563px;font-family:Raleway;-inkscape-font-specification:Raleway;stroke-width:0.26458332"
         id="path835" />
      <path
         d="m 64.037959,139.67075 0.593725,0.79163 0.03104,0.0582 0.03104,-0.0582 0.589845,-0.79163 h 0.298802 l -0.76835,1.01671 0.76835,1.00506 h -0.298802 l -0.589845,-0.78775 -0.03104,-0.0543 -0.03104,0.0543 -0.589844,0.78775 h -0.298803 l 0.76447,-1.00506 -0.76447,-1.01671 z"
         style="font-style:normal;font-variant:normal;font-weight:normal;font-stretch:normal;font-size:3.88055563px;font-family:Raleway;-inkscape-font-specification:Raleway;stroke-width:0.26458332"
         id="path837" />
      <path
         d="m 67.018221,141.69252 v -1.81222 h -0.2794 v -0.20955 h 0.2794 v -0.0543 q 0,-0.24835 0.06985,-0.42686 0.07373,-0.1785 0.205669,-0.27164 0.13582,-0.097 0.318206,-0.097 0.120297,0 0.232833,0.0349 0.112536,0.0349 0.194028,0.0931 l -0.08149,0.19014 q -0.05045,-0.0427 -0.131939,-0.066 -0.08149,-0.0233 -0.162983,-0.0233 -0.182386,0 -0.283281,0.14358 -0.09701,0.14358 -0.09701,0.41522 v 0.0621 h 0.5588 v 0.20955 h -0.5588 v 1.81222 z"
         style="font-style:normal;font-variant:normal;font-weight:normal;font-stretch:normal;font-size:3.88055563px;font-family:Raleway;-inkscape-font-specification:Raleway;stroke-width:0.26458332"
         id="path839" />
      <path
         d="m 69.000715,141.73133 q -0.217311,0 -0.403577,-0.0815 -0.182387,-0.0854 -0.318206,-0.22895 -0.131939,-0.14746 -0.205669,-0.33373 -0.07373,-0.19014 -0.07373,-0.39969 0,-0.21731 0.07373,-0.40358 0.07373,-0.19015 0.20955,-0.33373 0.135819,-0.14746 0.318205,-0.22895 0.186267,-0.0854 0.403578,-0.0854 0.217311,0 0.399697,0.0854 0.182386,0.0815 0.318206,0.22895 0.135819,0.14358 0.20955,0.33373 0.07373,0.18627 0.07373,0.40358 0,0.20955 -0.07373,0.39969 -0.07373,0.18627 -0.20955,0.33373 -0.131939,0.14358 -0.318206,0.22895 -0.182386,0.0815 -0.403578,0.0815 z m -0.733425,-1.03999 q 0,0.22507 0.09701,0.41134 0.100895,0.18238 0.267759,0.29104 0.166863,0.10477 0.368652,0.10477 0.201789,0 0.368653,-0.10865 0.166864,-0.10866 0.267758,-0.29493 0.100895,-0.19014 0.100895,-0.41133 0,-0.22508 -0.100895,-0.41134 -0.100894,-0.18627 -0.267758,-0.29493 -0.166864,-0.10865 -0.368653,-0.10865 -0.201789,0 -0.368652,0.11254 -0.162984,0.11253 -0.263878,0.2988 -0.100895,0.18238 -0.100895,0.41134 z"
         style="font-style:normal;font-variant:normal;font-weight:normal;font-stretch:normal;font-size:3.88055563px;font-family:Raleway;-inkscape-font-specification:Raleway;stroke-width:0.26458332"
         id="path841" />
      <path
         d="m 71.457106,139.90358 q -0.263878,0.008 -0.465667,0.14747 -0.197908,0.1397 -0.2794,0.38417 v 1.2573 h -0.263878 v -2.02177 h 0.248356 v 0.48507 q 0.104775,-0.21343 0.275519,-0.34537 0.174625,-0.13194 0.368653,-0.14746 0.03881,-0.004 0.06597,-0.004 0.03104,0 0.05045,0.004 z"
         style="font-style:normal;font-variant:normal;font-weight:normal;font-stretch:normal;font-size:3.88055563px;font-family:Raleway;-inkscape-font-specification:Raleway;stroke-width:0.26458332"
         id="path843" />
      <path
         d="m 75.716809,141.69252 h -0.263878 v -1.12924 q 0,-0.35313 -0.112536,-0.52 -0.112536,-0.16686 -0.333728,-0.16686 -0.228952,0 -0.411338,0.16298 -0.178506,0.16299 -0.252237,0.4191 v 1.23402 h -0.263877 v -1.12924 q 0,-0.35701 -0.108656,-0.52 -0.108655,-0.16686 -0.333728,-0.16686 -0.225072,0 -0.407458,0.1591 -0.182386,0.15911 -0.256117,0.4191 v 1.2379 h -0.263877 v -2.02177 h 0.240594 v 0.45791 q 0.128058,-0.23672 0.325967,-0.36478 0.201789,-0.12805 0.446264,-0.12805 0.252236,0 0.407458,0.14358 0.155222,0.14358 0.190147,0.37641 0.1397,-0.25612 0.333728,-0.38806 0.197908,-0.13193 0.446264,-0.13193 0.170744,0 0.287161,0.0621 0.120297,0.0621 0.190147,0.17851 0.07373,0.11254 0.104775,0.27552 0.03493,0.1591 0.03493,0.35701 z"
         style="font-style:normal;font-variant:normal;font-weight:normal;font-stretch:normal;font-size:3.88055563px;font-family:Raleway;-inkscape-font-specification:Raleway;stroke-width:0.26458332"
         id="path845" />
      <path
         d="m 76.11262,141.11044 q 0,-0.19015 0.108656,-0.32597 0.108655,-0.1397 0.298803,-0.21343 0.194027,-0.0776 0.446263,-0.0776 0.147462,0 0.306564,0.0233 0.159103,0.0233 0.283281,0.0699 v -0.17074 q 0,-0.25612 -0.151342,-0.40746 -0.151341,-0.15134 -0.4191,-0.15134 -0.162983,0 -0.322086,0.0621 -0.155222,0.0582 -0.325967,0.17462 l -0.100894,-0.18627 q 0.197908,-0.13581 0.388056,-0.20178 0.190147,-0.0699 0.388055,-0.0699 0.372534,0 0.589845,0.21343 0.217311,0.21343 0.217311,0.58984 v 0.93521 q 0,0.0543 0.02328,0.0815 0.02328,0.0233 0.07373,0.0272 v 0.20955 q -0.04269,0.004 -0.07373,0.008 -0.03104,0.004 -0.04657,0 -0.09701,-0.004 -0.147461,-0.0621 -0.05045,-0.0582 -0.05433,-0.12418 l -0.0039,-0.14746 q -0.135819,0.17463 -0.353131,0.27164 -0.217311,0.0931 -0.442383,0.0931 -0.194028,0 -0.353131,-0.0815 -0.155222,-0.0854 -0.244475,-0.22507 -0.08537,-0.14358 -0.08537,-0.31432 z m 1.354314,0.15522 q 0.04269,-0.0543 0.06597,-0.10478 0.02328,-0.0504 0.02328,-0.0892 v -0.29492 q -0.131939,-0.0505 -0.275519,-0.0776 -0.139701,-0.0272 -0.283281,-0.0272 -0.283281,0 -0.457906,0.11254 -0.174625,0.11254 -0.174625,0.30656 0,0.11254 0.05821,0.21343 0.05821,0.097 0.170744,0.16299 0.112536,0.0621 0.263878,0.0621 0.190147,0 0.35313,-0.0737 0.166864,-0.0737 0.256117,-0.19015 z"
         style="font-style:normal;font-variant:normal;font-weight:normal;font-stretch:normal;font-size:3.88055563px;font-family:Raleway;-inkscape-font-specification:Raleway;stroke-width:0.26458332"
         id="path847" />
      <path
         d="m 79.267504,141.73133 q -0.221192,0 -0.407458,-0.0815 -0.182386,-0.0854 -0.322086,-0.23283 -0.13582,-0.14746 -0.213431,-0.33761 -0.07373,-0.19014 -0.07373,-0.40358 0,-0.28716 0.128059,-0.52387 0.128058,-0.23671 0.357011,-0.37641 0.228953,-0.1397 0.527755,-0.1397 0.283281,0 0.500592,0.13193 0.217311,0.12806 0.322086,0.34925 l -0.256116,0.0815 q -0.08537,-0.15523 -0.240595,-0.2406 -0.151342,-0.0892 -0.337608,-0.0892 -0.201789,0 -0.368653,0.10477 -0.166864,0.10478 -0.267758,0.28717 -0.09701,0.18238 -0.09701,0.41521 0,0.22896 0.100894,0.41522 0.100895,0.18627 0.267759,0.29881 0.166863,0.10865 0.368652,0.10865 0.131939,0 0.252236,-0.0466 0.124178,-0.0466 0.213431,-0.12418 0.09313,-0.0815 0.124178,-0.17463 l 0.259997,0.0776 q -0.05433,0.14358 -0.182386,0.26 -0.124178,0.11254 -0.294922,0.17851 -0.166864,0.0621 -0.360892,0.0621 z"
         style="font-style:normal;font-variant:normal;font-weight:normal;font-stretch:normal;font-size:3.88055563px;font-family:Raleway;-inkscape-font-specification:Raleway;stroke-width:0.26458332"
         id="path849" />
      <path
         d="m 82.220606,141.69252 h -0.263877 v -1.12924 q 0,-0.34149 -0.120298,-0.51223 -0.120297,-0.17463 -0.345369,-0.17463 -0.147461,0 -0.294922,0.0776 -0.143581,0.0737 -0.256117,0.20567 -0.108656,0.12806 -0.155222,0.29492 v 1.2379 h -0.263878 v -2.83281 h 0.263878 v 1.26895 q 0.120297,-0.22508 0.333728,-0.35701 0.217311,-0.13582 0.461786,-0.13582 0.174625,0 0.294922,0.0621 0.124178,0.0621 0.197908,0.18239 0.07761,0.11642 0.112536,0.27552 0.03493,0.15522 0.03493,0.35313 z"
         style="font-style:normal;font-variant:normal;font-weight:normal;font-stretch:normal;font-size:3.88055563px;font-family:Raleway;-inkscape-font-specification:Raleway;stroke-width:0.26458332"
         id="path851" />
      <path
         d="m 82.783283,141.69252 v -2.02177 h 0.263877 v 2.02177 z m 0,-2.44475 v -0.38806 h 0.263877 v 0.38806 z"
         style="font-style:normal;font-variant:normal;font-weight:normal;font-stretch:normal;font-size:3.88055563px;font-family:Raleway;-inkscape-font-specification:Raleway;stroke-width:0.26458332"
         id="path853" />
      <path
         d="m 85.328921,141.69252 h -0.263878 v -1.12924 q 0,-0.35701 -0.104775,-0.52 -0.104775,-0.16686 -0.329847,-0.16686 -0.155222,0 -0.306564,0.0776 -0.151342,0.0737 -0.267758,0.20567 -0.112537,0.12806 -0.162984,0.29492 v 1.2379 h -0.263878 v -2.02177 h 0.240595 v 0.45791 q 0.08149,-0.14746 0.21343,-0.25612 0.131939,-0.11254 0.298803,-0.17463 0.166864,-0.0621 0.34537,-0.0621 0.166864,0 0.28328,0.0621 0.116417,0.0621 0.186267,0.17851 0.06985,0.11254 0.100894,0.27552 0.03104,0.1591 0.03104,0.35701 z"
         style="font-style:normal;font-variant:normal;font-weight:normal;font-stretch:normal;font-size:3.88055563px;font-family:Raleway;-inkscape-font-specification:Raleway;stroke-width:0.26458332"
         id="path855" />
      <path
         d="m 86.764718,141.73133 q -0.217311,0 -0.403577,-0.0815 -0.186267,-0.0854 -0.322087,-0.22895 -0.135819,-0.14746 -0.21343,-0.33761 -0.07373,-0.19014 -0.07373,-0.40746 0,-0.28328 0.128059,-0.51999 0.131939,-0.23671 0.360891,-0.37641 0.228953,-0.14358 0.519995,-0.14358 0.298803,0 0.519994,0.14358 0.225072,0.14358 0.353131,0.38029 0.128058,0.23283 0.128058,0.51223 0,0.031 0,0.0621 0,0.0272 -0.0039,0.0427 h -1.730728 q 0.0194,0.21731 0.120297,0.38805 0.104775,0.16687 0.267758,0.26776 0.166864,0.097 0.360892,0.097 0.197908,0 0.372533,-0.1009 0.178506,-0.10089 0.248356,-0.26388 l 0.228953,0.0621 q -0.06209,0.14358 -0.190148,0.26 -0.128058,0.11642 -0.302683,0.18239 -0.170744,0.0621 -0.368653,0.0621 z m -0.745066,-1.14477 h 1.494014 q -0.01552,-0.22119 -0.120298,-0.38805 -0.100894,-0.16687 -0.267758,-0.26 -0.162983,-0.097 -0.360892,-0.097 -0.197908,0 -0.360891,0.097 -0.162984,0.0931 -0.267759,0.26388 -0.100894,0.16686 -0.116416,0.38417 z"
         style="font-style:normal;font-variant:normal;font-weight:normal;font-stretch:normal;font-size:3.88055563px;font-family:Raleway;-inkscape-font-specification:Raleway;stroke-width:0.26458332"
         id="path857" />
      <path
         d="m 89.17066,138.85971 h 0.263878 v 2.3749 q 0,0.15135 0.05433,0.19791 0.05433,0.0466 0.131939,0.0466 0.06985,0 0.1397,-0.0155 0.06985,-0.0155 0.120297,-0.031 l 0.04657,0.21343 q -0.07373,0.031 -0.182386,0.0505 -0.104775,0.0194 -0.182386,0.0194 -0.178506,0 -0.287162,-0.10477 -0.104775,-0.10478 -0.104775,-0.28716 z"
         style="font-style:normal;font-variant:normal;font-weight:normal;font-stretch:normal;font-size:3.88055563px;font-family:Raleway;-inkscape-font-specification:Raleway;stroke-width:0.26458332"
         id="path859" />
      <path
         d="m 91.087651,141.73133 q -0.217311,0 -0.403577,-0.0815 -0.186267,-0.0854 -0.322086,-0.22895 -0.13582,-0.14746 -0.213431,-0.33761 -0.07373,-0.19014 -0.07373,-0.40746 0,-0.28328 0.128059,-0.51999 0.131939,-0.23671 0.360891,-0.37641 0.228953,-0.14358 0.519995,-0.14358 0.298803,0 0.519994,0.14358 0.225073,0.14358 0.353131,0.38029 0.128058,0.23283 0.128058,0.51223 0,0.031 0,0.0621 0,0.0272 -0.0039,0.0427 h -1.730728 q 0.0194,0.21731 0.120297,0.38805 0.104775,0.16687 0.267758,0.26776 0.166864,0.097 0.360892,0.097 0.197908,0 0.372533,-0.1009 0.178506,-0.10089 0.248356,-0.26388 l 0.228953,0.0621 q -0.06209,0.14358 -0.190147,0.26 -0.128059,0.11642 -0.302684,0.18239 -0.170744,0.0621 -0.368653,0.0621 z m -0.745066,-1.14477 h 1.494014 q -0.01552,-0.22119 -0.120297,-0.38805 -0.100895,-0.16687 -0.267759,-0.26 -0.162983,-0.097 -0.360892,-0.097 -0.197908,0 -0.360891,0.097 -0.162984,0.0931 -0.267759,0.26388 -0.100894,0.16686 -0.116416,0.38417 z"
         style="font-style:normal;font-variant:normal;font-weight:normal;font-stretch:normal;font-size:3.88055563px;font-family:Raleway;-inkscape-font-specification:Raleway;stroke-width:0.26458332"
         id="path861" />
      <path
         d="m 92.329429,141.11044 q 0,-0.19015 0.108655,-0.32597 0.108656,-0.1397 0.298803,-0.21343 0.194028,-0.0776 0.446264,-0.0776 0.147461,0 0.306564,0.0233 0.159102,0.0233 0.28328,0.0699 v -0.17074 q 0,-0.25612 -0.151341,-0.40746 -0.151342,-0.15134 -0.4191,-0.15134 -0.162984,0 -0.322087,0.0621 -0.155222,0.0582 -0.325966,0.17462 l -0.100895,-0.18627 q 0.197909,-0.13581 0.388056,-0.20178 0.190147,-0.0699 0.388055,-0.0699 0.372534,0 0.589845,0.21343 0.217311,0.21343 0.217311,0.58984 v 0.93521 q 0,0.0543 0.02328,0.0815 0.02328,0.0233 0.07373,0.0272 v 0.20955 q -0.04269,0.004 -0.07373,0.008 -0.03104,0.004 -0.04657,0 -0.09701,-0.004 -0.147461,-0.0621 -0.05045,-0.0582 -0.05433,-0.12418 l -0.0039,-0.14746 q -0.135819,0.17463 -0.35313,0.27164 -0.217311,0.0931 -0.442384,0.0931 -0.194027,0 -0.35313,-0.0815 -0.155222,-0.0854 -0.244475,-0.22507 -0.08537,-0.14358 -0.08537,-0.31432 z m 1.354313,0.15522 q 0.04269,-0.0543 0.06597,-0.10478 0.02328,-0.0504 0.02328,-0.0892 v -0.29492 q -0.131939,-0.0505 -0.275519,-0.0776 -0.1397,-0.0272 -0.283281,-0.0272 -0.28328,0 -0.457905,0.11254 -0.174625,0.11254 -0.174625,0.30656 0,0.11254 0.05821,0.21343 0.05821,0.097 0.170744,0.16299 0.112537,0.0621 0.263878,0.0621 0.190147,0 0.353131,-0.0737 0.166864,-0.0737 0.256116,-0.19015 z"
         style="font-style:normal;font-variant:normal;font-weight:normal;font-stretch:normal;font-size:3.88055563px;font-family:Raleway;-inkscape-font-specification:Raleway;stroke-width:0.26458332"
         id="path863" />
      <path
         d="m 95.616251,139.90358 q -0.263878,0.008 -0.465666,0.14747 -0.197909,0.1397 -0.2794,0.38417 v 1.2573 h -0.263878 v -2.02177 h 0.248355 v 0.48507 q 0.104775,-0.21343 0.27552,-0.34537 0.174625,-0.13194 0.368653,-0.14746 0.0388,-0.004 0.06597,-0.004 0.03104,0 0.05045,0.004 z"
         style="font-style:normal;font-variant:normal;font-weight:normal;font-stretch:normal;font-size:3.88055563px;font-family:Raleway;-inkscape-font-specification:Raleway;stroke-width:0.26458332"
         id="path865" />
      <path
         d="m 97.669066,141.69252 h -0.263878 v -1.12924 q 0,-0.35701 -0.104775,-0.52 -0.104775,-0.16686 -0.329847,-0.16686 -0.155222,0 -0.306564,0.0776 -0.151342,0.0737 -0.267758,0.20567 -0.112536,0.12806 -0.162984,0.29492 v 1.2379 h -0.263877 v -2.02177 h 0.240594 v 0.45791 q 0.08149,-0.14746 0.213431,-0.25612 0.131938,-0.11254 0.298802,-0.17463 0.166864,-0.0621 0.34537,-0.0621 0.166864,0 0.28328,0.0621 0.116417,0.0621 0.186267,0.17851 0.06985,0.11254 0.100895,0.27552 0.03104,0.1591 0.03104,0.35701 z"
         style="font-style:normal;font-variant:normal;font-weight:normal;font-stretch:normal;font-size:3.88055563px;font-family:Raleway;-inkscape-font-specification:Raleway;stroke-width:0.26458332"
         id="path867" />
      <path
         d="m 98.231738,141.69252 v -2.02177 h 0.263878 v 2.02177 z m 0,-2.44475 v -0.38806 h 0.263878 v 0.38806 z"
         style="font-style:normal;font-variant:normal;font-weight:normal;font-stretch:normal;font-size:3.88055563px;font-family:Raleway;-inkscape-font-specification:Raleway;stroke-width:0.26458332"
         id="path869" />
      <path
         d="m 100.77738,141.69252 h -0.26388 v -1.12924 q 0,-0.35701 -0.10478,-0.52 -0.10477,-0.16686 -0.32984,-0.16686 -0.155226,0 -0.306567,0.0776 -0.151342,0.0737 -0.267759,0.20567 -0.112536,0.12806 -0.162983,0.29492 v 1.2379 h -0.263878 v -2.02177 h 0.240595 v 0.45791 q 0.08149,-0.14746 0.21343,-0.25612 0.131939,-0.11254 0.298803,-0.17463 0.166864,-0.0621 0.345369,-0.0621 0.16686,0 0.28328,0.0621 0.11642,0.0621 0.18627,0.17851 0.0699,0.11254 0.10089,0.27552 0.031,0.1591 0.031,0.35701 z"
         style="font-style:normal;font-variant:normal;font-weight:normal;font-stretch:normal;font-size:3.88055563px;font-family:Raleway;-inkscape-font-specification:Raleway;stroke-width:0.26458332"
         id="path871" />
      <path
         d="m 102.15109,141.71968 q -0.20567,0 -0.3803,-0.0854 -0.17462,-0.0854 -0.30268,-0.22895 -0.12418,-0.14746 -0.19403,-0.33373 -0.0699,-0.18627 -0.0699,-0.38417 0,-0.21343 0.066,-0.3997 0.0699,-0.19015 0.19403,-0.33761 0.12806,-0.14746 0.2988,-0.22895 0.17075,-0.0854 0.3803,-0.0854 0.26,0 0.45014,0.13193 0.19403,0.13194 0.32597,0.32597 v -0.42298 h 0.23671 v 2.02953 q 0,0.2794 -0.13582,0.46955 -0.13194,0.19403 -0.36089,0.29104 -0.22507,0.097 -0.49283,0.097 -0.34537,0 -0.5588,-0.12417 -0.21343,-0.12418 -0.34925,-0.33373 l 0.16298,-0.12806 q 0.1203,0.19015 0.31821,0.28328 0.20179,0.0931 0.42686,0.0931 0.19791,0 0.36089,-0.0737 0.16687,-0.0699 0.26388,-0.21343 0.1009,-0.14358 0.1009,-0.36089 v -0.3997 q -0.11642,0.19015 -0.31821,0.30657 -0.20179,0.11253 -0.42298,0.11253 z m 0.0737,-0.22119 q 0.1203,0 0.22895,-0.0427 0.11254,-0.0427 0.20567,-0.11254 0.0931,-0.0737 0.15522,-0.16298 0.0621,-0.0893 0.0776,-0.18239 v -0.62477 q -0.0582,-0.14746 -0.16687,-0.26 -0.10865,-0.11641 -0.24835,-0.1785 -0.13582,-0.066 -0.28328,-0.066 -0.17075,0 -0.30657,0.0737 -0.13194,0.0699 -0.22507,0.19015 -0.0892,0.11641 -0.1397,0.26387 -0.0504,0.14747 -0.0504,0.29493 0,0.16298 0.0582,0.31044 0.0582,0.14358 0.1591,0.26 0.10478,0.11253 0.2406,0.17462 0.1397,0.0621 0.29492,0.0621 z"
         style="font-style:normal;font-variant:normal;font-weight:normal;font-stretch:normal;font-size:3.88055563px;font-family:Raleway;-inkscape-font-specification:Raleway;stroke-width:0.26458332"
         id="path873" />
      <path
         d="m 104.72777,141.69252 v -2.02177 h 0.26388 v 2.02177 z m 0,-2.44475 v -0.38806 h 0.26388 v 0.38806 z"
         style="font-style:normal;font-variant:normal;font-weight:normal;font-stretch:normal;font-size:3.88055563px;font-family:Raleway;-inkscape-font-specification:Raleway;stroke-width:0.26458332"
         id="path875" />
      <path
         d="m 107.27341,141.69252 h -0.26388 v -1.12924 q 0,-0.35701 -0.10478,-0.52 -0.10477,-0.16686 -0.32984,-0.16686 -0.15523,0 -0.30657,0.0776 -0.15134,0.0737 -0.26776,0.20567 -0.11253,0.12806 -0.16298,0.29492 v 1.2379 h -0.26388 v -2.02177 h 0.2406 v 0.45791 q 0.0815,-0.14746 0.21343,-0.25612 0.13194,-0.11254 0.2988,-0.17463 0.16686,-0.0621 0.34537,-0.0621 0.16686,0 0.28328,0.0621 0.11642,0.0621 0.18627,0.17851 0.0699,0.11254 0.10089,0.27552 0.031,0.1591 0.031,0.35701 z"
         style="font-style:normal;font-variant:normal;font-weight:normal;font-stretch:normal;font-size:3.88055563px;font-family:Raleway;-inkscape-font-specification:Raleway;stroke-width:0.26458332"
         id="path877" />
      <path
         d="m 109.48919,141.73133 q -0.24835,0 -0.46178,-0.0815 -0.21343,-0.0815 -0.36866,-0.24835 l 0.10866,-0.18627 q 0.17074,0.1591 0.34149,0.23284 0.17462,0.0699 0.36865,0.0699 0.23672,0 0.38418,-0.0931 0.14746,-0.097 0.14746,-0.27552 0,-0.12029 -0.0737,-0.18238 -0.0699,-0.066 -0.20567,-0.10478 -0.13194,-0.0427 -0.31821,-0.0892 -0.20955,-0.0582 -0.35313,-0.1203 -0.1397,-0.066 -0.21343,-0.16298 -0.0699,-0.1009 -0.0699,-0.26 0,-0.19791 0.097,-0.32597 0.1009,-0.13193 0.27164,-0.1979 0.17463,-0.0699 0.38806,-0.0699 0.23283,0 0.41134,0.0737 0.1785,0.0737 0.29104,0.20567 l -0.12806,0.1785 q -0.10865,-0.12418 -0.26,-0.18238 -0.14746,-0.0621 -0.32984,-0.0621 -0.12418,0 -0.23672,0.0349 -0.11253,0.0311 -0.18626,0.10866 -0.0699,0.0737 -0.0699,0.20567 0,0.10865 0.0543,0.17074 0.0543,0.0582 0.16299,0.1009 0.10865,0.0388 0.26776,0.0854 0.22895,0.0621 0.39969,0.12806 0.17075,0.0621 0.26388,0.16298 0.0931,0.10089 0.0931,0.28328 0,0.28328 -0.21343,0.44238 -0.21343,0.15911 -0.56268,0.15911 z"
         style="font-style:normal;font-variant:normal;font-weight:normal;font-stretch:normal;font-size:3.88055563px;font-family:Raleway;-inkscape-font-specification:Raleway;stroke-width:0.26458332"
         id="path879" />
      <path
         d="m 111.57305,141.73133 q -0.21731,0 -0.40358,-0.0815 -0.18627,-0.0854 -0.32209,-0.22895 -0.13581,-0.14746 -0.21343,-0.33761 -0.0737,-0.19014 -0.0737,-0.40746 0,-0.28328 0.12806,-0.51999 0.13194,-0.23671 0.36089,-0.37641 0.22896,-0.14358 0.52,-0.14358 0.2988,0 0.51999,0.14358 0.22507,0.14358 0.35313,0.38029 0.12806,0.23283 0.12806,0.51223 0,0.031 0,0.0621 0,0.0272 -0.004,0.0427 h -1.73073 q 0.0194,0.21731 0.1203,0.38805 0.10478,0.16687 0.26776,0.26776 0.16686,0.097 0.36089,0.097 0.19791,0 0.37253,-0.1009 0.17851,-0.10089 0.24836,-0.26388 l 0.22895,0.0621 q -0.0621,0.14358 -0.19015,0.26 -0.12805,0.11642 -0.30268,0.18239 -0.17074,0.0621 -0.36865,0.0621 z m -0.74507,-1.14477 h 1.49402 q -0.0155,-0.22119 -0.1203,-0.38805 -0.1009,-0.16687 -0.26776,-0.26 -0.16298,-0.097 -0.36089,-0.097 -0.19791,0 -0.36089,0.097 -0.16299,0.0931 -0.26776,0.26388 -0.1009,0.16686 -0.11642,0.38417 z"
         style="font-style:normal;font-variant:normal;font-weight:normal;font-stretch:normal;font-size:3.88055563px;font-family:Raleway;-inkscape-font-specification:Raleway;stroke-width:0.26458332"
         id="path881" />
      <path
         d="m 112.97781,141.69252 v -2.02177 h 0.26388 v 2.02177 z m 0,-2.44475 v -0.38806 h 0.26388 v 0.38806 z"
         style="font-style:normal;font-variant:normal;font-weight:normal;font-stretch:normal;font-size:3.88055563px;font-family:Raleway;-inkscape-font-specification:Raleway;stroke-width:0.26458332"
         id="path883" />
      <path
         d="m 114.48734,141.73133 q -0.24835,0 -0.46178,-0.0815 -0.21343,-0.0815 -0.36866,-0.24835 l 0.10866,-0.18627 q 0.17074,0.1591 0.34149,0.23284 0.17462,0.0699 0.36865,0.0699 0.23672,0 0.38418,-0.0931 0.14746,-0.097 0.14746,-0.27552 0,-0.12029 -0.0737,-0.18238 -0.0699,-0.066 -0.20567,-0.10478 -0.13194,-0.0427 -0.31821,-0.0892 -0.20955,-0.0582 -0.35313,-0.1203 -0.1397,-0.066 -0.21343,-0.16298 -0.0699,-0.1009 -0.0699,-0.26 0,-0.19791 0.097,-0.32597 0.1009,-0.13193 0.27164,-0.1979 0.17463,-0.0699 0.38806,-0.0699 0.23283,0 0.41134,0.0737 0.1785,0.0737 0.29104,0.20567 l -0.12806,0.1785 q -0.10865,-0.12418 -0.26,-0.18238 -0.14746,-0.0621 -0.32984,-0.0621 -0.12418,0 -0.23672,0.0349 -0.11253,0.0311 -0.18626,0.10866 -0.0699,0.0737 -0.0699,0.20567 0,0.10865 0.0543,0.17074 0.0543,0.0582 0.16299,0.1009 0.10865,0.0388 0.26776,0.0854 0.22895,0.0621 0.39969,0.12806 0.17075,0.0621 0.26388,0.16298 0.0931,0.10089 0.0931,0.28328 0,0.28328 -0.21343,0.44238 -0.21343,0.15911 -0.56268,0.15911 z"
         style="font-style:normal;font-variant:normal;font-weight:normal;font-stretch:normal;font-size:3.88055563px;font-family:Raleway;-inkscape-font-specification:Raleway;stroke-width:0.26458332"
         id="path885" />
      <path
         d="m 118.7055,141.69252 h -0.26387 v -1.12924 q 0,-0.35313 -0.11254,-0.52 -0.11254,-0.16686 -0.33373,-0.16686 -0.22895,0 -0.41134,0.16298 -0.1785,0.16299 -0.25223,0.4191 v 1.23402 h -0.26388 v -1.12924 q 0,-0.35701 -0.10866,-0.52 -0.10865,-0.16686 -0.33372,-0.16686 -0.22508,0 -0.40746,0.1591 -0.18239,0.15911 -0.25612,0.4191 v 1.2379 h -0.26388 v -2.02177 h 0.2406 v 0.45791 q 0.12806,-0.23672 0.32596,-0.36478 0.20179,-0.12805 0.44627,-0.12805 0.25223,0 0.40746,0.14358 0.15522,0.14358 0.19014,0.37641 0.1397,-0.25612 0.33373,-0.38806 0.19791,-0.13193 0.44627,-0.13193 0.17074,0 0.28716,0.0621 0.12029,0.0621 0.19014,0.17851 0.0737,0.11254 0.10478,0.27552 0.0349,0.1591 0.0349,0.35701 z"
         style="font-style:normal;font-variant:normal;font-weight:normal;font-stretch:normal;font-size:3.88055563px;font-family:Raleway;-inkscape-font-specification:Raleway;stroke-width:0.26458332"
         id="path887" />
      <path
         d="m 120.12578,141.73133 q -0.21731,0 -0.40358,-0.0815 -0.18238,-0.0854 -0.3182,-0.22895 -0.13194,-0.14746 -0.20567,-0.33373 -0.0737,-0.19014 -0.0737,-0.39969 0,-0.21731 0.0737,-0.40358 0.0737,-0.19015 0.20955,-0.33373 0.13582,-0.14746 0.3182,-0.22895 0.18627,-0.0854 0.40358,-0.0854 0.21731,0 0.3997,0.0854 0.18238,0.0815 0.3182,0.22895 0.13582,0.14358 0.20955,0.33373 0.0737,0.18627 0.0737,0.40358 0,0.20955 -0.0737,0.39969 -0.0737,0.18627 -0.20955,0.33373 -0.13194,0.14358 -0.3182,0.22895 -0.18239,0.0815 -0.40358,0.0815 z m -0.73342,-1.03999 q 0,0.22507 0.097,0.41134 0.10089,0.18238 0.26776,0.29104 0.16686,0.10477 0.36865,0.10477 0.20179,0 0.36865,-0.10865 0.16687,-0.10866 0.26776,-0.29493 0.1009,-0.19014 0.1009,-0.41133 0,-0.22508 -0.1009,-0.41134 -0.10089,-0.18627 -0.26776,-0.29493 -0.16686,-0.10865 -0.36865,-0.10865 -0.20179,0 -0.36865,0.11254 -0.16299,0.11253 -0.26388,0.2988 -0.10089,0.18238 -0.10089,0.41134 z"
         style="font-style:normal;font-variant:normal;font-weight:normal;font-stretch:normal;font-size:3.88055563px;font-family:Raleway;-inkscape-font-specification:Raleway;stroke-width:0.26458332"
         id="path889" />
      <path
         d="m 121.58487,138.85971 h 0.26388 v 2.3749 q 0,0.15135 0.0543,0.19791 0.0543,0.0466 0.13194,0.0466 0.0699,0 0.1397,-0.0155 0.0699,-0.0155 0.1203,-0.031 l 0.0466,0.21343 q -0.0737,0.031 -0.18239,0.0505 -0.10477,0.0194 -0.18239,0.0194 -0.1785,0 -0.28716,-0.10477 -0.10477,-0.10478 -0.10477,-0.28716 z"
         style="font-style:normal;font-variant:normal;font-weight:normal;font-stretch:normal;font-size:3.88055563px;font-family:Raleway;-inkscape-font-specification:Raleway;stroke-width:0.26458332"
         id="path891" />
      <path
         d="m 123.49022,141.73133 q -0.21731,0 -0.40358,-0.0815 -0.18238,-0.0854 -0.3182,-0.22895 -0.13194,-0.14746 -0.20567,-0.33373 -0.0737,-0.19014 -0.0737,-0.39969 0,-0.21731 0.0737,-0.40358 0.0737,-0.19015 0.20955,-0.33373 0.13582,-0.14746 0.3182,-0.22895 0.18627,-0.0854 0.40358,-0.0854 0.21731,0 0.3997,0.0854 0.18238,0.0815 0.3182,0.22895 0.13582,0.14358 0.20955,0.33373 0.0737,0.18627 0.0737,0.40358 0,0.20955 -0.0737,0.39969 -0.0737,0.18627 -0.20955,0.33373 -0.13193,0.14358 -0.3182,0.22895 -0.18239,0.0815 -0.40358,0.0815 z m -0.73342,-1.03999 q 0,0.22507 0.097,0.41134 0.10089,0.18238 0.26776,0.29104 0.16686,0.10477 0.36865,0.10477 0.20179,0 0.36865,-0.10865 0.16687,-0.10866 0.26776,-0.29493 0.1009,-0.19014 0.1009,-0.41133 0,-0.22508 -0.1009,-0.41134 -0.10089,-0.18627 -0.26776,-0.29493 -0.16686,-0.10865 -0.36865,-0.10865 -0.20179,0 -0.36865,0.11254 -0.16299,0.11253 -0.26388,0.2988 -0.10089,0.18238 -0.10089,0.41134 z"
         style="font-style:normal;font-variant:normal;font-weight:normal;font-stretch:normal;font-size:3.88055563px;font-family:Raleway;-inkscape-font-specification:Raleway;stroke-width:0.26458332"
         id="path893" />
      <path
         d="m 125.7487,141.71968 q -0.20567,0 -0.38029,-0.0854 -0.17463,-0.0854 -0.30268,-0.22895 -0.12418,-0.14746 -0.19403,-0.33373 -0.0699,-0.18627 -0.0699,-0.38417 0,-0.21343 0.066,-0.3997 0.0699,-0.19015 0.19402,-0.33761 0.12806,-0.14746 0.29881,-0.22895 0.17074,-0.0854 0.38029,-0.0854 0.26,0 0.45015,0.13193 0.19402,0.13194 0.32596,0.32597 v -0.42298 h 0.23672 v 2.02953 q 0,0.2794 -0.13582,0.46955 -0.13194,0.19403 -0.36089,0.29104 -0.22508,0.097 -0.49283,0.097 -0.34537,0 -0.5588,-0.12417 -0.21344,-0.12418 -0.34925,-0.33373 l 0.16298,-0.12806 q 0.1203,0.19015 0.3182,0.28328 0.20179,0.0931 0.42687,0.0931 0.1979,0 0.36089,-0.0737 0.16686,-0.0699 0.26387,-0.21343 0.1009,-0.14358 0.1009,-0.36089 v -0.3997 q -0.11642,0.19015 -0.31821,0.30657 -0.20179,0.11253 -0.42298,0.11253 z m 0.0737,-0.22119 q 0.1203,0 0.22896,-0.0427 0.11253,-0.0427 0.20567,-0.11254 0.0931,-0.0737 0.15522,-0.16298 0.0621,-0.0893 0.0776,-0.18239 v -0.62477 q -0.0582,-0.14746 -0.16686,-0.26 -0.10866,-0.11641 -0.24836,-0.1785 -0.13582,-0.066 -0.28328,-0.066 -0.17075,0 -0.30656,0.0737 -0.13194,0.0699 -0.22508,0.19015 -0.0892,0.11641 -0.1397,0.26387 -0.0504,0.14747 -0.0504,0.29493 0,0.16298 0.0582,0.31044 0.0582,0.14358 0.15911,0.26 0.10477,0.11253 0.24059,0.17462 0.1397,0.0621 0.29492,0.0621 z"
         style="font-style:normal;font-variant:normal;font-weight:normal;font-stretch:normal;font-size:3.88055563px;font-family:Raleway;-inkscape-font-specification:Raleway;stroke-width:0.26458332"
         id="path895" />
      <path
         d="m 127.45225,142.31341 q 0.0543,0.004 0.10478,0.004 0.0504,0.004 0.0737,-0.004 0.0466,-0.008 0.0893,-0.0543 0.0427,-0.0466 0.1009,-0.1785 0.0582,-0.13194 0.16298,-0.38806 l -0.88089,-2.02177 h 0.2794 l 0.74119,1.75013 0.68298,-1.75013 h 0.26388 l -1.04775,2.60773 q -0.0272,0.0737 -0.0815,0.13582 -0.0543,0.066 -0.13582,0.1009 -0.0776,0.0388 -0.19402,0.0427 -0.0349,0.004 -0.0737,0 -0.0349,0 -0.0854,-0.008 z"
         style="font-style:normal;font-variant:normal;font-weight:normal;font-stretch:normal;font-size:3.88055563px;font-family:Raleway;-inkscape-font-specification:Raleway;stroke-width:0.26458332"
         id="path897" />
    </g>
  </g>
</svg>
